<?xml version="1.0" encoding="UTF-8" standalone="no"?>
<svg viewBox="0 0 500 650" xmlns="http://www.w3.org/2000/svg">
  <defs>
    <marker id="arrow" markerWidth="10" markerHeight="10" refX="5" refY="5" orient="auto">
      <path d="M 0,0 10,5 0,10 Z" fill="blue" style="display:inline;opacity:1" />
    </marker>
  </defs>

  <rect x="10" y="130" width="480" height="480" rx="1" ry="1" style="fill: none; stroke: grey; stroke-dasharray:5,5"/>
  <text style="white-space: pre; fill: grey; font-family: Arial, sans-serif; font-size: 20px; font-style: italic">
    <tspan x="25" y="150">Java</tspan>
    <tspan x="25" y="170">Collections</tspan>
    <tspan x="25" y="190">Framework</tspan>
  </text>

  <rect x="180" y="30"  width="140" height="80" rx="10" ry="10" style="fill: white; stroke: blue;"/>
  <text style="white-space: pre; fill: rgb(51, 51, 51); font-family: Arial, sans-serif; font-size: 28px;"
        x="205" y="60">Iterable</text>

  <line x1="250" y1="145" x2="250" y2="115" style="stroke:blue;stroke-width:1;marker-end:url(#arrow)" />
  <rect x="180" y="145" width="140" height="80" rx="10" ry="10" style="fill: white; stroke: blue;"/>
  <text style="white-space: pre; fill: rgb(51, 51, 51); font-family: Arial, sans-serif; font-size: 28px;"
        x="190" y="175">Collection</text>

  <line x1="250" y1="260" x2="250" y2="230" style="stroke:blue;stroke-width:1;marker-end:url(#arrow)"/>
  <line x1="100" y1="260" x2="400" y2="260" style="stroke:blue;stroke-width:1;"/>
  <line x1="250" y1="290" x2="250" y2="260" style="stroke:blue;stroke-width:1"/>
  <line x1="100" y1="290" x2="100" y2="260" style="stroke:blue;stroke-width:1"/>
  <line x1="400" y1="290" x2="400" y2="260" style="stroke:blue;stroke-width:1"/>

  <rect x="30"  y="290" style="fill: white; stroke: blue;" width="140" height="80" rx="10" ry="10"/>
  <text style="white-space: pre; fill: rgb(51, 51, 51); font-family: Arial, sans-serif; font-size: 28px;"
        x="75" y="320">List</text>

  <rect x="180" y="290" style="fill: white; stroke: blue;" width="140" height="80" rx="10" ry="10"/>
  <text style="white-space: pre; fill: rgb(51, 51, 51); font-family: Arial, sans-serif; font-size: 28px;"
        x="225" y="320">Set</text>

  <rect x="330" y="290" style="fill: white; stroke: blue;" width="140" height="80" rx="10" ry="10"/>
  <text style="white-space: pre; fill: rgb(51, 51, 51); font-family: Arial, sans-serif; font-size: 28px;"
        x="355" y="320">Queue</text>

  <line style="stroke:blue;stroke-width:1;marker-end:url(#arrow)"
        x1="250" y1="400" x2="250" y2="375" />
  <rect x="180" y="400" style="fill: white; stroke: blue;" width="140" height="80" rx="10" ry="10"/>
  <text style="white-space: pre; fill: rgb(51, 51, 51); font-family: Arial, sans-serif; font-size: 28px;"
        x="190" y="430">SortedSet</text>

  <line style="stroke:blue;stroke-width:1;marker-end:url(#arrow)"
        x1="250" y1="510" x2="250" y2="485" />
  <rect x="180" y="510" style="fill: white; stroke: blue;" width="140" height="80" rx="10" ry="10"/>
  <text style="white-space: pre; fill: black; font-family: Arial, sans-serif; font-size: 22px;"
        x="185" y="540">NavigableSet</text>

</svg>
