<svg xmlns="http://www.w3.org/2000/svg" id="logo-iso" viewBox="0 0 1024 1024">
  <defs>
    <style>
      .cls-1 {
        fill: #e3000f;
      }

      .cls-1, .cls-2 {
        stroke-width: 0px;
      }

      .cls-2 {
        fill: #fff;
      }
    </style>
  </defs>
  <path id="logo-bg" class="cls-1" d="m1.76,1022.24h1020.47V1.76H1.76v1020.47Z"/>
  <g id="logo-shape">
    <path id="globe-bottom" class="cls-2" d="m787.14,703.46c-16.42,23.43-35.72,44.67-57.41,63.2-33.31-9.3-70.92-16.36-110.85-20.91,4.46-13.37,8.52-27.54,12.14-42.29h-21.89c-3.67,14.26-7.68,27.69-12,40.07-28.31-2.54-57.53-3.88-87.05-3.88s-56,1.18-82.79,3.43c-4.27-12.25-8.22-25.53-11.83-39.62h-21.9c3.59,14.54,7.56,28.52,11.98,41.71-40.04,4.36-77.7,11.27-111.76,20.57-21.27-18.31-40.19-39.25-56.34-62.28h-25.8c63.59,99.18,174.6,165.07,300.65,165.07s237.07-65.88,300.66-165.07h-25.8Zm-471.79,78.93c30-7.28,63.17-12.83,98-16.45,13.12,33.6,30.35,61.22,47.38,78.56-53.04-8.57-103.72-31.49-145.38-62.11Zm196.93,66.31c-26.96,0-54.88-31.85-76.8-84.77,24.37-1.93,49.39-2.94,74.6-2.94,26.72,0,53.18,1.15,78.87,3.28-21.92,52.71-49.74,84.43-76.67,84.43Zm51.57-4.2c16.97-17.28,34.13-44.75,47.21-78.13,34.55,3.75,67.35,9.41,97.05,16.83-41.41,30.17-91.69,52.79-144.26,61.3Z"/>
    <path id="O" class="cls-2" d="m784.25,351.18c-98.73,0-169.29,57.41-169.29,160.18s70.55,160.2,169.29,160.2,169.26-57.41,169.26-160.2-70.57-160.18-169.26-160.18Zm-.87,247.59c-39.02,0-63.8-24.85-63.8-87.41s24.77-87.39,63.8-87.39,63.76,24.87,63.76,87.39-24.77,87.41-63.76,87.41Z"/>
    <path id="S" class="cls-2" d="m443.77,605c38.75,0,54.49-8.77,54.49-24.53,0-51.17-197.09,8.45-197.09-128.34,0-69.52,58.87-100.96,144.79-100.96,20.86,0,41.68,2.19,69.11,5.47h74.58v92.93h-74.58v-19.77c-10.97-5.84-36.92-12.08-63.98-12.08-34.76,0-48.28,10.26-48.28,23.42,0,54.48,198.91-8.05,198.91,128.02,0,56.31-37.67,102.38-150.64,102.38-20.86,0-45.7-2.17-73.13-5.49h-74.6v-92.89h74.6v19.76c10.97,5.85,36.56,12.07,65.81,12.07"/>
    <polygon id="I" class="cls-2" points="81.77 589.92 131.86 589.92 131.86 434.11 81.77 434.11 81.77 357.28 281.04 357.28 281.04 434.11 230.94 434.11 230.94 589.92 281.04 589.92 281.04 666.7 81.77 666.7 81.77 589.92"/>
    <path id="globe-top" class="cls-2" d="m512.28,155.47c-126.05,0-237.06,65.87-300.65,165.06h25.8c16.42-23.39,35.72-44.64,57.4-63.2,33.34,9.31,70.94,16.36,110.87,20.93-4.47,13.38-8.54,27.52-12.15,42.27h21.9c3.66-14.26,7.66-27.69,12.01-40.06,28.28,2.54,57.52,3.89,87.04,3.89s55.99-1.19,82.79-3.45c4.25,12.25,8.2,25.53,11.81,39.62h21.91c-3.59-14.51-7.55-28.52-11.96-41.68,40.03-4.37,77.67-11.29,111.72-20.59,21.28,18.31,40.21,39.25,56.36,62.27h25.8c-63.59-99.19-174.6-165.06-300.66-165.06Zm-98.77,102.15c-34.56-3.75-67.34-9.41-97.06-16.81,41.42-30.2,91.7-52.81,144.28-61.32-16.97,17.28-34.14,44.77-47.22,78.13Zm100.98,5.38c-26.73,0-53.18-1.15-78.88-3.27,21.92-52.71,49.74-84.43,76.66-84.43s54.89,31.85,76.82,84.77c-24.38,1.92-49.4,2.91-74.6,2.93Zm96.74-4.95c-13.14-33.58-30.35-61.19-47.4-78.58,53.03,8.59,103.72,31.51,145.38,62.14-30,7.28-63.15,12.83-97.98,16.44Z"/>
  </g>
</svg>