<?xml version="1.0" encoding="UTF-8" standalone="no"?>
<svg viewBox="0 100 1100 1200" xmlns="http://www.w3.org/2000/svg">
   <defs>
    <style>
      .base {
        fill: none;
        stroke: black;
        rx: 1;
      }

      .fill-white { fill: white }
      .fill-green { fill: green }
      .fill-light-green { fill: LightGreen }
      .fill-blue  { fill: blue  }

      .line {
        stroke: black;
        stroke-width:1;
        fill: none;
      }
      .text, .text14, .text19, .text20, .text22 {
        white-space: pre;
        fill: rgb(51,51,51);
        font-family: Arial, sans-serif;
      }
      .text {font-size: 28px;}
      .text14 {font-size: 14px;}
      .text19 {font-size: 19px;}
      .text20 {font-size: 20px;}
      .text22 {font-size: 22px;}
      .text25 {font-size: 25px;}
      .text30 {font-size: 30px;}

      .i {font-style: italic;}
    </style>
  </defs>

    <rect x="10"  y="130" class="base fill-light-green" width="1070" height="340"/>
    <text x="545" y="160" class="text30 fill-green" text-anchor="middle">Threads Memory</text>

    <rect x="20"  y="210" class="base" width="620" height="240"/>
    <text x="330" y="200" class="text22" text-anchor="middle">JVM Stacks</text>

    <rect x="30" y="230" class="base fill-white" width="180" height="200"/>
    <text class="text22" x="75" y="250">Thread 0</text>
    <line x1="30" y1="260" x2="210" y2="260" class="line"/>
    <text class="text20" x="70" y="290">PC Register</text>
    <line x1="30" y1="300" x2="210" y2="300" class="line"/>
    <text class="text20" x="90" y="330">Stack</text>
    <rect x="40" y="340" class="base" width="160" height="80"/>
    <text class="text20" x="70" y="360">Frame Last</text>
    <text class="text20" x="110" y="370">...</text>
    <text class="text20" x="70" y="390">Frame 2</text>
    <text class="text20" x="70" y="410">Frame First</text>

    <rect x="230" y="230" class="base fill-white" width="180" height="200" />
    <text class="text22" x="275" y="250">Thread 1</text>
    <line x1="230" y1="260" x2="410" y2="260" class="line"/>
    <text class="text20" x="270" y="290">PC Register</text>
    <line x1="230" y1="300" x2="410" y2="300" class="line"/>
    <text class="text20" x="290" y="330">Stack</text>
    <rect x="240" y="340" class="base" width="160" height="80"/>
    <text class="text20" x="270" y="360">Frame Last</text>
    <text class="text20" x="310" y="370">...</text>
    <text class="text20" x="270" y="390">Frame 2</text>
    <text class="text20" x="270" y="410">Frame First</text>

    <text class="text30" x="420" y="340">...</text>

    <rect x="450" y="230" class="base fill-white" width="180" height="200"/>
    <text class="text22" x="495" y="250">Thread N</text>
    <line x1="450" y1="260" x2="630" y2="260" class="line"/>
    <text class="text20" x="490" y="290">PC Register</text>
    <line x1="450" y1="300" x2="630" y2="300" class="line"/>
    <text class="text20" x="510" y="330">Stack</text>
    <rect x="460" y="340" class="base" width="160" height="80"/>
    <text class="text20" x="490" y="360">Frame Last</text>
    <text class="text20" x="530" y="370">...</text>
    <text class="text20" x="490" y="390">Frame 2</text>
    <text class="text20" x="490" y="410">Frame First</text>

    <!-- Native Method Stacks -->
    <rect x="660" y="210" class="base" width="410" height="240" />
    <text class="text22" x="865" y="200" text-anchor="middle">Native Method Stacks</text>

    <rect x="670" y="230" class="base fill-white" width="110" height="200" />
    <text class="text22" x="680" y="250">Thread 0</text>

    <rect x="790" y="230" class="base fill-white" width="110" height="200" />
    <text class="text22" x="800" y="250">Thread 1</text>

    <text class="text30" x="915" y="340">...</text>

    <rect x="950" y="230" class="base fill-white" width="110" height="200" />
    <text class="text22" x="960" y="250">Thread N</text>

    <!-- Heap -->
    <rect x="10" y="510" class="base" style="fill: SkyBlue" width="1070" height="340"/>
    <text class="text30 fill-green" x="545" y="540" text-anchor="middle">Heap Memory</text>

    <rect x="20"  y="570" class="base" style="fill: PaleGreen" width="260" height="40"/>
    <text x="150" y="600" class="text22 fill-green" text-anchor="middle">Young</text>
    <rect x="20"  y="610" class="base fill-light-green" width="100" height="100"/>
    <text x="70"  y="665" class="text22 fill-green" text-anchor="middle">Eden</text>
    <rect x="120" y="610" class="base" style="fill: MediumSpringGreen" width="30" height="100"/>
    <text x="140" y="695" class="text20" transform="rotate(-90 140 695)">Survivor</text>
    <rect x="150" y="610" class="base" style="fill: MediumSpringGreen" width="30" height="100"/>
    <text x="170" y="695" class="text20" transform="rotate(-90 170 695)">Survivor</text>
    <rect x="180" y="610" class="base" style="fill: MediumSeaGreen" width="100" height="100"/>
    <text x="200" y="665" class="text22 fill-green">Virtual</text>

    <rect x="280" y="570" class="base" style="fill: DodgerBlue" width="260" height="40"/>
    <text x="410" y="600" class="text22 fill-green" text-anchor="middle">Old</text>
    <rect x="280" y="610" class="base" style="fill: SteelBlue" width="140" height="100"/>
    <rect x="420" y="610" class="base" style="fill: LightSteelBlue" width="120" height="100"/>
    <text x="480" y="665" class="text22 fill-green" text-anchor="middle">Virtual</text>
    <rect x="20"  y="710" class="base" style="fill: LightBlue" width="520" height="30"/>
    <text x="35"  y="730" class="text19 fill-green i">Default Arrangement of Generations in the Serial Collector</text>

    <rect x="580" y="570" class="base" style="fill: BurlyWood" width="490" height="170"/>
    <text x="590" y="600" class="text22 fill-green">Method Area</text>
    <rect x="810" y="630" class="base" style="fill: Tan" width="250" height="100"/>
    <text x="825" y="685" class="text20">Run-Time Constant Pool</text>

    <rect x="20" y="770" class="base" style="fill: YellowGreen" width="200" height="70"/>
    <text x="50" y="815" class="text30">String Pool</text>

    <rect x="320" y="770" class="base" style="fill: Olive" width="220" height="70"/>
    <text x="350" y="815" class="text30">Class statics</text>

    <!-- Native Memory -->
    <rect x="10"  y="890" class="base" style="fill: LightSalmon" width="1070" height="380"/>
    <text x="545" y="920" class="text30 fill-green" text-anchor="middle">Native Memory</text>

    <rect x="30"  y="980"  class="base" style="fill: DarkSalmon" width="1030" height="280"/>
    <text x="545" y="1010" class="text25 fill-green" text-anchor="middle">Metaspace / Class Metadata</text>

    <text x="50"  y="1040" class="text22" id="constantPool">• Constant Pool (symbolic info)</text>
    <text x="360" y="1040" class="text19">[Class names, Field names and descriptors, Method names and descriptors ...]</text>
    <text x="50"  y="1070" class="text22">• Field Metadata</text>
    <text x="360" y="1070" class="text19">[Field name, Field type, Access flags (private/public/static/etc) ...]</text>
    <text x="50"  y="1100" class="text22">• Method Metadata</text>
    <text x="360" y="1100" class="text19">[Method name, Descriptor (arguments + return type), Access flags ...]</text>
    <text x="50"  y="1130" class="text22">• Class Hierarchy Metadata</text>
    <text x="360" y="1130" class="text19">[Superclass reference, Implemented interfaces, Subclasses (linked list) ...]</text>
    <text x="50"  y="1160" class="text20"><tspan class="text22">•</tspan> JVM Representation of the Class</text>
    <text x="360" y="1160" class="text19">[Class status (loaded/linked/initialized), Class loader pointer, Module reference  ...]</text>
    <text x="50"  y="1190" class="text22">• Static Fields Metadata</text>
    <text x="360" y="1190" class="">[Primitive static values (in Metaspace memory), Object static values (references to heap objects) ...]</text>
    <text x="50"  y="1220" class="text22">• Annotations</text>
    <text x="360" y="1220" class="text19">[RuntimeVisibleAnnotations, RuntimeInvisibleAnnotations ...]</text>
    <text x="50"  y="1250" class="text22">• ...</text>

</svg>
