<svg viewBox="-3 -5 29 29" xmlns="http://www.w3.org/2000/svg">
  <defs>
    <linearGradient x1="50%" y1="0%" x2="50%" y2="100%" id="a">
      <stop stop-color="#FC4343" offset="0%"/>
      <stop stop-color="#F82020" offset="100%"/>
    </linearGradient>
  </defs>
  <path d="M821.427 39.586 830 48.159l8.573-8.573c.715-.715 1.848-.782 2.695-.12l.146.133a2 2 0 0 1 0 2.828L832.841 51l8.573 8.573c.715.715.782 1.848.12 2.695l-.133.146a2 2 0 0 1-2.828 0L830 53.841l-8.573 8.573c-.715.715-1.848.782-2.695.12l-.146-.133a2 2 0 0 1 0-2.828L827.159 51l-8.573-8.573c-.715-.715-.782-1.848-.12-2.695l.133-.146a2 2 0 0 1 2.828 0Z" transform="translate(-818 -40)" fill="url(#a)" fill-rule="nonzero"/>
</svg>